<mxfile modified="2020-06-22T13:28:36.829Z" host="app.diagrams.net" agent="5.0 (Windows NT 10.0; Win64; x64) AppleWebKit/537.36 (KHTML, like Gecko) Chrome/83.0.4103.106 Safari/537.36" etag="9-AXjLIVzjiunlvk1EZ0" version="13.3.0" type="github">
  <diagram name="Page-1" id="97a40813-6b03-0c74-37c1-0168de264b11">
    <mxGraphModel dx="1246" dy="1358" grid="1" gridSize="10" guides="1" tooltips="1" connect="1" arrows="1" fold="1" page="1" pageScale="1" pageWidth="1000" pageHeight="300" background="#ffffff" math="0" shadow="0">
      <root>
        <mxCell id="0" />
        <mxCell id="1" parent="0" />
        <mxCell id="wsxFhhJqC8uP3kLpo3IL-1" value="" style="rounded=0;whiteSpace=wrap;html=1;" vertex="1" parent="1">
          <mxGeometry x="30" y="-117" width="250" height="217" as="geometry" />
        </mxCell>
        <mxCell id="wsxFhhJqC8uP3kLpo3IL-4" value="Chrome (client)" style="rounded=0;whiteSpace=wrap;html=1;" vertex="1" parent="1">
          <mxGeometry x="30" y="-200" width="250" height="70" as="geometry" />
        </mxCell>
        <mxCell id="wsxFhhJqC8uP3kLpo3IL-7" value="Container / Browser" style="rounded=0;whiteSpace=wrap;html=1;" vertex="1" parent="1">
          <mxGeometry x="160" y="-51" width="100" height="37" as="geometry" />
        </mxCell>
        <mxCell id="wsxFhhJqC8uP3kLpo3IL-8" value="Editor" style="rounded=0;whiteSpace=wrap;html=1;" vertex="1" parent="1">
          <mxGeometry x="160" y="-3" width="100" height="37" as="geometry" />
        </mxCell>
        <mxCell id="wsxFhhJqC8uP3kLpo3IL-9" value="Lively4 Server" style="rounded=0;whiteSpace=wrap;html=1;" vertex="1" parent="1">
          <mxGeometry x="580" y="-218" width="230" height="70" as="geometry" />
        </mxCell>
        <mxCell id="wsxFhhJqC8uP3kLpo3IL-10" value="" style="endArrow=classic;html=1;" edge="1" parent="1">
          <mxGeometry width="50" height="50" relative="1" as="geometry">
            <mxPoint x="300" as="sourcePoint" />
            <mxPoint x="550" as="targetPoint" />
          </mxGeometry>
        </mxCell>
        <mxCell id="wsxFhhJqC8uP3kLpo3IL-11" value="" style="endArrow=classic;html=1;" edge="1" parent="1">
          <mxGeometry width="50" height="50" relative="1" as="geometry">
            <mxPoint x="555" y="80" as="sourcePoint" />
            <mxPoint x="305" y="80" as="targetPoint" />
          </mxGeometry>
        </mxCell>
        <mxCell id="wsxFhhJqC8uP3kLpo3IL-12" value="&lt;b&gt;fetch requests&lt;/b&gt;" style="text;html=1;strokeColor=none;fillColor=none;align=center;verticalAlign=middle;whiteSpace=wrap;rounded=0;" vertex="1" parent="1">
          <mxGeometry x="370" y="-43" width="120" height="20" as="geometry" />
        </mxCell>
        <mxCell id="wsxFhhJqC8uP3kLpo3IL-13" value="OPTIONS / GET / PUT" style="text;html=1;strokeColor=none;fillColor=none;align=center;verticalAlign=middle;whiteSpace=wrap;rounded=0;" vertex="1" parent="1">
          <mxGeometry x="340" y="7" width="160" height="20" as="geometry" />
        </mxCell>
        <mxCell id="wsxFhhJqC8uP3kLpo3IL-14" value="url, ... authentification" style="text;html=1;strokeColor=none;fillColor=none;align=center;verticalAlign=middle;whiteSpace=wrap;rounded=0;" vertex="1" parent="1">
          <mxGeometry x="360" y="40" width="120" height="20" as="geometry" />
        </mxCell>
        <mxCell id="wsxFhhJqC8uP3kLpo3IL-15" value="FS" style="shape=cylinder;whiteSpace=wrap;html=1;boundedLbl=1;backgroundOutline=1;" vertex="1" parent="1">
          <mxGeometry x="770" y="-90" width="110" height="120" as="geometry" />
        </mxCell>
        <mxCell id="wsxFhhJqC8uP3kLpo3IL-16" value="git repo" style="shape=cylinder;whiteSpace=wrap;html=1;boundedLbl=1;backgroundOutline=1;" vertex="1" parent="1">
          <mxGeometry x="860" y="-133" width="110" height="120" as="geometry" />
        </mxCell>
        <mxCell id="wsxFhhJqC8uP3kLpo3IL-17" value="" style="rounded=0;whiteSpace=wrap;html=1;" vertex="1" parent="1">
          <mxGeometry x="590" y="-73" width="160" height="183" as="geometry" />
        </mxCell>
        <mxCell id="wsxFhhJqC8uP3kLpo3IL-18" value="serve files" style="text;html=1;strokeColor=none;fillColor=none;align=center;verticalAlign=middle;whiteSpace=wrap;rounded=0;" vertex="1" parent="1">
          <mxGeometry x="590" y="-38" width="120" height="20" as="geometry" />
        </mxCell>
        <mxCell id="wsxFhhJqC8uP3kLpo3IL-19" value="sync (pull, push, merge)" style="text;html=1;strokeColor=none;fillColor=none;align=center;verticalAlign=middle;whiteSpace=wrap;rounded=0;" vertex="1" parent="1">
          <mxGeometry x="590" y="73" width="170" height="20" as="geometry" />
        </mxCell>
        <mxCell id="wsxFhhJqC8uP3kLpo3IL-35" style="edgeStyle=orthogonalEdgeStyle;rounded=0;orthogonalLoop=1;jettySize=auto;html=1;entryX=0;entryY=0.5;entryDx=0;entryDy=0;" edge="1" parent="1" source="wsxFhhJqC8uP3kLpo3IL-21" target="wsxFhhJqC8uP3kLpo3IL-29">
          <mxGeometry relative="1" as="geometry" />
        </mxCell>
        <mxCell id="wsxFhhJqC8uP3kLpo3IL-21" value="Lively4 Auth Server" style="rounded=0;whiteSpace=wrap;html=1;" vertex="1" parent="1">
          <mxGeometry x="315" y="-360" width="230" height="70" as="geometry" />
        </mxCell>
        <mxCell id="wsxFhhJqC8uP3kLpo3IL-26" value="" style="endArrow=classic;startArrow=classic;html=1;exitX=0;exitY=0.5;exitDx=0;exitDy=0;entryX=0;entryY=0.5;entryDx=0;entryDy=0;" edge="1" parent="1" source="wsxFhhJqC8uP3kLpo3IL-27" target="wsxFhhJqC8uP3kLpo3IL-21">
          <mxGeometry width="50" height="50" relative="1" as="geometry">
            <mxPoint x="270" y="90" as="sourcePoint" />
            <mxPoint x="560" y="-550" as="targetPoint" />
            <Array as="points">
              <mxPoint x="10" y="-36" />
              <mxPoint x="10" y="-325" />
            </Array>
          </mxGeometry>
        </mxCell>
        <mxCell id="wsxFhhJqC8uP3kLpo3IL-27" value="Sync Tool" style="rounded=0;whiteSpace=wrap;html=1;" vertex="1" parent="1">
          <mxGeometry x="50" y="-55" width="80" height="37" as="geometry" />
        </mxCell>
        <mxCell id="wsxFhhJqC8uP3kLpo3IL-28" value="create commits" style="text;html=1;strokeColor=none;fillColor=none;align=center;verticalAlign=middle;whiteSpace=wrap;rounded=0;" vertex="1" parent="1">
          <mxGeometry x="610" y="8.5" width="120" height="20" as="geometry" />
        </mxCell>
        <mxCell id="wsxFhhJqC8uP3kLpo3IL-29" value="GitHub" style="rounded=0;whiteSpace=wrap;html=1;" vertex="1" parent="1">
          <mxGeometry x="700" y="-530" width="120" height="60" as="geometry" />
        </mxCell>
        <mxCell id="wsxFhhJqC8uP3kLpo3IL-30" value="Repository" style="shape=cylinder;whiteSpace=wrap;html=1;boundedLbl=1;backgroundOutline=1;" vertex="1" parent="1">
          <mxGeometry x="780" y="-490" width="110" height="120" as="geometry" />
        </mxCell>
        <mxCell id="wsxFhhJqC8uP3kLpo3IL-31" value="" style="endArrow=classic;startArrow=classic;html=1;exitX=1;exitY=0.5;exitDx=0;exitDy=0;entryX=1;entryY=0.25;entryDx=0;entryDy=0;" edge="1" parent="1" source="wsxFhhJqC8uP3kLpo3IL-19" target="wsxFhhJqC8uP3kLpo3IL-29">
          <mxGeometry width="50" height="50" relative="1" as="geometry">
            <mxPoint x="1030" y="30" as="sourcePoint" />
            <mxPoint x="1080" y="-20" as="targetPoint" />
            <Array as="points">
              <mxPoint x="1000" y="83" />
              <mxPoint x="1000" y="-515" />
            </Array>
          </mxGeometry>
        </mxCell>
        <mxCell id="wsxFhhJqC8uP3kLpo3IL-33" value="(A) Collaboration and Conflict Resolution" style="text;html=1;strokeColor=none;fillColor=none;align=left;verticalAlign=middle;whiteSpace=wrap;rounded=0;direction=south;fontSize=16;fontColor=#004C99;" vertex="1" parent="1">
          <mxGeometry x="10" y="200" width="310" height="40" as="geometry" />
        </mxCell>
        <mxCell id="wsxFhhJqC8uP3kLpo3IL-36" value="Lively4" style="text;html=1;strokeColor=none;fillColor=none;align=center;verticalAlign=middle;whiteSpace=wrap;rounded=0;" vertex="1" parent="1">
          <mxGeometry x="50" y="-100" width="40" height="20" as="geometry" />
        </mxCell>
        <mxCell id="wsxFhhJqC8uP3kLpo3IL-37" value="(A) Browser, Server, GitHub Collaboration" style="text;html=1;strokeColor=none;fillColor=none;align=center;verticalAlign=middle;whiteSpace=wrap;rounded=0;direction=south;fontSize=16;fontColor=#004C99;" vertex="1" parent="1">
          <mxGeometry x="30" y="-570" width="310" height="40" as="geometry" />
        </mxCell>
        <mxCell id="wsxFhhJqC8uP3kLpo3IL-38" value="" style="rounded=0;whiteSpace=wrap;html=1;" vertex="1" parent="1">
          <mxGeometry x="40" y="250" width="250" height="217" as="geometry" />
        </mxCell>
        <mxCell id="wsxFhhJqC8uP3kLpo3IL-45" style="edgeStyle=orthogonalEdgeStyle;rounded=0;orthogonalLoop=1;jettySize=auto;html=1;entryX=0;entryY=0.5;entryDx=0;entryDy=0;" edge="1" parent="1" source="wsxFhhJqC8uP3kLpo3IL-39" target="wsxFhhJqC8uP3kLpo3IL-44">
          <mxGeometry relative="1" as="geometry" />
        </mxCell>
        <mxCell id="wsxFhhJqC8uP3kLpo3IL-46" value="(1) PUT file.md" style="edgeLabel;html=1;align=center;verticalAlign=middle;resizable=0;points=[];" vertex="1" connectable="0" parent="wsxFhhJqC8uP3kLpo3IL-45">
          <mxGeometry x="0.2473" y="1" relative="1" as="geometry">
            <mxPoint x="-11.5" y="-16" as="offset" />
          </mxGeometry>
        </mxCell>
        <mxCell id="wsxFhhJqC8uP3kLpo3IL-39" value="Editor" style="rounded=0;whiteSpace=wrap;html=1;" vertex="1" parent="1">
          <mxGeometry x="90" y="310" width="100" height="37" as="geometry" />
        </mxCell>
        <mxCell id="wsxFhhJqC8uP3kLpo3IL-40" value="Lively4" style="text;html=1;strokeColor=none;fillColor=none;align=center;verticalAlign=middle;whiteSpace=wrap;rounded=0;" vertex="1" parent="1">
          <mxGeometry x="60" y="260" width="40" height="20" as="geometry" />
        </mxCell>
        <mxCell id="wsxFhhJqC8uP3kLpo3IL-42" value="Editor" style="rounded=0;whiteSpace=wrap;html=1;" vertex="1" parent="1">
          <mxGeometry x="60" y="420" width="100" height="37" as="geometry" />
        </mxCell>
        <mxCell id="wsxFhhJqC8uP3kLpo3IL-43" value="View" style="rounded=0;whiteSpace=wrap;html=1;" vertex="1" parent="1">
          <mxGeometry x="180" y="420" width="100" height="37" as="geometry" />
        </mxCell>
        <mxCell id="wsxFhhJqC8uP3kLpo3IL-44" value="Server" style="rounded=0;whiteSpace=wrap;html=1;" vertex="1" parent="1">
          <mxGeometry x="600" y="287" width="120" height="60" as="geometry" />
        </mxCell>
        <mxCell id="wsxFhhJqC8uP3kLpo3IL-49" value="" style="endArrow=none;dashed=1;html=1;entryX=0.5;entryY=1;entryDx=0;entryDy=0;exitX=0.5;exitY=0;exitDx=0;exitDy=0;" edge="1" parent="1" source="wsxFhhJqC8uP3kLpo3IL-42" target="wsxFhhJqC8uP3kLpo3IL-39">
          <mxGeometry width="50" height="50" relative="1" as="geometry">
            <mxPoint x="310" y="430" as="sourcePoint" />
            <mxPoint x="360" y="380" as="targetPoint" />
          </mxGeometry>
        </mxCell>
        <mxCell id="wsxFhhJqC8uP3kLpo3IL-50" value="" style="endArrow=none;dashed=1;html=1;exitX=0.5;exitY=0;exitDx=0;exitDy=0;" edge="1" parent="1" source="wsxFhhJqC8uP3kLpo3IL-43" target="wsxFhhJqC8uP3kLpo3IL-39">
          <mxGeometry width="50" height="50" relative="1" as="geometry">
            <mxPoint x="120" y="430" as="sourcePoint" />
            <mxPoint x="150" y="357" as="targetPoint" />
          </mxGeometry>
        </mxCell>
        <mxCell id="wsxFhhJqC8uP3kLpo3IL-51" value="(2) directly signal changed content for url" style="text;html=1;strokeColor=none;fillColor=none;align=center;verticalAlign=middle;whiteSpace=wrap;rounded=0;" vertex="1" parent="1">
          <mxGeometry x="60" y="370" width="230" height="20" as="geometry" />
        </mxCell>
        <mxCell id="wsxFhhJqC8uP3kLpo3IL-52" style="edgeStyle=orthogonalEdgeStyle;rounded=0;orthogonalLoop=1;jettySize=auto;html=1;entryX=0.175;entryY=0.952;entryDx=0;entryDy=0;entryPerimeter=0;" edge="1" parent="1" source="wsxFhhJqC8uP3kLpo3IL-43" target="wsxFhhJqC8uP3kLpo3IL-44">
          <mxGeometry relative="1" as="geometry">
            <mxPoint x="200" y="338.47058823529414" as="sourcePoint" />
            <mxPoint x="609.9999999999998" y="327" as="targetPoint" />
          </mxGeometry>
        </mxCell>
        <mxCell id="wsxFhhJqC8uP3kLpo3IL-53" value="(3) fetch new content from server" style="edgeLabel;html=1;align=center;verticalAlign=middle;resizable=0;points=[];" vertex="1" connectable="0" parent="wsxFhhJqC8uP3kLpo3IL-52">
          <mxGeometry x="0.2473" y="1" relative="1" as="geometry">
            <mxPoint x="-91.72" y="-17.52" as="offset" />
          </mxGeometry>
        </mxCell>
        <mxCell id="wsxFhhJqC8uP3kLpo3IL-54" value="" style="rounded=0;whiteSpace=wrap;html=1;" vertex="1" parent="1">
          <mxGeometry x="290" y="570" width="250" height="217" as="geometry" />
        </mxCell>
        <mxCell id="wsxFhhJqC8uP3kLpo3IL-56" style="edgeStyle=orthogonalEdgeStyle;rounded=0;orthogonalLoop=1;jettySize=auto;html=1;" edge="1" parent="1" source="wsxFhhJqC8uP3kLpo3IL-55" target="wsxFhhJqC8uP3kLpo3IL-44">
          <mxGeometry relative="1" as="geometry" />
        </mxCell>
        <mxCell id="wsxFhhJqC8uP3kLpo3IL-57" value="(4) PUT conflicting file.md&lt;br&gt;conflict is detected&lt;br&gt;(5) merge with local changes and PUT again" style="edgeLabel;html=1;align=center;verticalAlign=middle;resizable=0;points=[];" vertex="1" connectable="0" parent="wsxFhhJqC8uP3kLpo3IL-56">
          <mxGeometry x="0.3416" y="-4" relative="1" as="geometry">
            <mxPoint as="offset" />
          </mxGeometry>
        </mxCell>
        <mxCell id="wsxFhhJqC8uP3kLpo3IL-55" value="Editor" style="rounded=0;whiteSpace=wrap;html=1;" vertex="1" parent="1">
          <mxGeometry x="330" y="650" width="100" height="37" as="geometry" />
        </mxCell>
        <mxCell id="wsxFhhJqC8uP3kLpo3IL-58" value="" style="rounded=0;whiteSpace=wrap;html=1;fillColor=none;dashed=1;strokeColor=#FF9933;strokeWidth=2;" vertex="1" parent="1">
          <mxGeometry x="320" y="638.5" width="120" height="60" as="geometry" />
        </mxCell>
        <mxCell id="wsxFhhJqC8uP3kLpo3IL-60" value="(A) in one browser page" style="text;html=1;strokeColor=none;fillColor=none;align=left;verticalAlign=middle;whiteSpace=wrap;rounded=0;dashed=1;fontColor=#FF9933;" vertex="1" parent="1">
          <mxGeometry x="60" y="347" width="160" height="20" as="geometry" />
        </mxCell>
        <mxCell id="wsxFhhJqC8uP3kLpo3IL-61" value="solves conflict (using diff match patch per character and not line based)" style="text;html=1;strokeColor=none;fillColor=none;align=center;verticalAlign=middle;whiteSpace=wrap;rounded=0;dashed=1;fontColor=#FF9933;" vertex="1" parent="1">
          <mxGeometry x="325" y="610" width="230" height="20" as="geometry" />
        </mxCell>
        <mxCell id="wsxFhhJqC8uP3kLpo3IL-70" style="edgeStyle=orthogonalEdgeStyle;rounded=0;orthogonalLoop=1;jettySize=auto;html=1;fontColor=#FF9933;" edge="1" parent="1" source="wsxFhhJqC8uP3kLpo3IL-62" target="wsxFhhJqC8uP3kLpo3IL-63">
          <mxGeometry relative="1" as="geometry" />
        </mxCell>
        <mxCell id="wsxFhhJqC8uP3kLpo3IL-71" style="edgeStyle=orthogonalEdgeStyle;rounded=0;orthogonalLoop=1;jettySize=auto;html=1;entryX=0.75;entryY=1;entryDx=0;entryDy=0;fontColor=#FF9933;" edge="1" parent="1" source="wsxFhhJqC8uP3kLpo3IL-62" target="wsxFhhJqC8uP3kLpo3IL-44">
          <mxGeometry relative="1" as="geometry" />
        </mxCell>
        <mxCell id="wsxFhhJqC8uP3kLpo3IL-72" style="edgeStyle=orthogonalEdgeStyle;rounded=0;orthogonalLoop=1;jettySize=auto;html=1;entryX=1;entryY=0.25;entryDx=0;entryDy=0;fontColor=#FF9933;exitX=0.181;exitY=-0.047;exitDx=0;exitDy=0;exitPerimeter=0;" edge="1" parent="1" source="wsxFhhJqC8uP3kLpo3IL-62" target="wsxFhhJqC8uP3kLpo3IL-44">
          <mxGeometry relative="1" as="geometry" />
        </mxCell>
        <mxCell id="wsxFhhJqC8uP3kLpo3IL-62" value="CONFLICT bewtween Lively adn GitHub" style="text;html=1;strokeColor=none;fillColor=none;align=center;verticalAlign=middle;whiteSpace=wrap;rounded=0;dashed=1;fontColor=#FF9933;" vertex="1" parent="1">
          <mxGeometry x="730" y="360" width="230" height="20" as="geometry" />
        </mxCell>
        <mxCell id="wsxFhhJqC8uP3kLpo3IL-63" value="GitHub" style="rounded=0;whiteSpace=wrap;html=1;" vertex="1" parent="1">
          <mxGeometry x="970" y="237" width="120" height="60" as="geometry" />
        </mxCell>
        <mxCell id="wsxFhhJqC8uP3kLpo3IL-64" value="Repository" style="shape=cylinder;whiteSpace=wrap;html=1;boundedLbl=1;backgroundOutline=1;" vertex="1" parent="1">
          <mxGeometry x="1050" y="277" width="110" height="120" as="geometry" />
        </mxCell>
        <mxCell id="wsxFhhJqC8uP3kLpo3IL-65" value="Lively4" style="text;html=1;strokeColor=none;fillColor=none;align=center;verticalAlign=middle;whiteSpace=wrap;rounded=0;" vertex="1" parent="1">
          <mxGeometry x="300" y="580" width="40" height="20" as="geometry" />
        </mxCell>
        <mxCell id="wsxFhhJqC8uP3kLpo3IL-66" value="" style="rounded=0;whiteSpace=wrap;html=1;" vertex="1" parent="1">
          <mxGeometry x="800" y="397" width="250" height="217" as="geometry" />
        </mxCell>
        <mxCell id="wsxFhhJqC8uP3kLpo3IL-69" style="edgeStyle=orthogonalEdgeStyle;rounded=0;orthogonalLoop=1;jettySize=auto;html=1;exitX=0;exitY=0.5;exitDx=0;exitDy=0;fontColor=#FF9933;entryX=0.171;entryY=0.938;entryDx=0;entryDy=0;entryPerimeter=0;" edge="1" parent="1" source="wsxFhhJqC8uP3kLpo3IL-67" target="wsxFhhJqC8uP3kLpo3IL-62">
          <mxGeometry relative="1" as="geometry" />
        </mxCell>
        <mxCell id="wsxFhhJqC8uP3kLpo3IL-67" value="Sync Tool" style="rounded=0;whiteSpace=wrap;html=1;" vertex="1" parent="1">
          <mxGeometry x="820" y="459" width="80" height="37" as="geometry" />
        </mxCell>
        <mxCell id="wsxFhhJqC8uP3kLpo3IL-68" value="Lively4" style="text;html=1;strokeColor=none;fillColor=none;align=center;verticalAlign=middle;whiteSpace=wrap;rounded=0;" vertex="1" parent="1">
          <mxGeometry x="830" y="410" width="40" height="20" as="geometry" />
        </mxCell>
        <mxCell id="wsxFhhJqC8uP3kLpo3IL-73" value="conflict in file,&lt;br&gt;needs to be manually changed...." style="shape=note;whiteSpace=wrap;html=1;backgroundOutline=1;darkOpacity=0.05;dashed=1;strokeColor=#FF9933;strokeWidth=2;fillColor=none;fontColor=#FF9933;" vertex="1" parent="1">
          <mxGeometry x="790" y="240" width="80" height="100" as="geometry" />
        </mxCell>
        <mxCell id="wsxFhhJqC8uP3kLpo3IL-74" value="CONFLICT bewtween Lively commits" style="text;html=1;strokeColor=none;fillColor=none;align=center;verticalAlign=middle;whiteSpace=wrap;rounded=0;dashed=1;fontColor=#FF9933;" vertex="1" parent="1">
          <mxGeometry x="330" y="550" width="230" height="20" as="geometry" />
        </mxCell>
        <mxCell id="wsxFhhJqC8uP3kLpo3IL-75" value="(B) between different lively session in one checked out repository" style="text;html=1;strokeColor=none;fillColor=none;align=left;verticalAlign=middle;whiteSpace=wrap;rounded=0;dashed=1;fontColor=#FF9933;" vertex="1" parent="1">
          <mxGeometry x="280" y="500" width="160" height="50" as="geometry" />
        </mxCell>
        <mxCell id="wsxFhhJqC8uP3kLpo3IL-76" value="(C) between distributed respositories" style="text;html=1;strokeColor=none;fillColor=none;align=left;verticalAlign=middle;whiteSpace=wrap;rounded=0;dashed=1;fontColor=#FF9933;" vertex="1" parent="1">
          <mxGeometry x="800" y="170" width="160" height="50" as="geometry" />
        </mxCell>
        <mxCell id="wsxFhhJqC8uP3kLpo3IL-77" value="Live... immediate feedback" style="text;html=1;strokeColor=none;fillColor=none;align=left;verticalAlign=middle;whiteSpace=wrap;rounded=0;dashed=1;fontColor=#FF9933;" vertex="1" parent="1">
          <mxGeometry x="40" y="495.5" width="160" height="20" as="geometry" />
        </mxCell>
        <mxCell id="wsxFhhJqC8uP3kLpo3IL-78" value="automerge when saving file&lt;br&gt;highlight changes" style="text;html=1;strokeColor=none;fillColor=none;align=left;verticalAlign=middle;whiteSpace=wrap;rounded=0;dashed=1;fontColor=#FF9933;" vertex="1" parent="1">
          <mxGeometry x="320" y="710" width="160" height="20" as="geometry" />
        </mxCell>
        <mxCell id="wsxFhhJqC8uP3kLpo3IL-79" value="fallback to manual conflict resolution...&amp;nbsp;" style="text;html=1;strokeColor=none;fillColor=none;align=left;verticalAlign=middle;whiteSpace=wrap;rounded=0;dashed=1;fontColor=#FF9933;" vertex="1" parent="1">
          <mxGeometry x="820" y="530" width="160" height="20" as="geometry" />
        </mxCell>
      </root>
    </mxGraphModel>
  </diagram>
</mxfile>
